<svg xmlns="http://www.w3.org/2000/svg" width="28.35" height="28.25"><style>.st0{fill:#000000}</style><path class="st0" d="M14.13 25.9H3.53c-.65 0-1.18-.53-1.18-1.18V3.53c0-.65.53-1.18 1.18-1.18h10.59c.65 0 1.18-.53 1.18-1.18C15.3.53 14.78 0 14.13 0H3.53C1.58 0 0 1.58 0 3.53v21.19c0 1.95 1.58 3.53 3.53 3.53h10.59c.65 0 1.18-.53 1.18-1.18 0-.65-.52-1.17-1.17-1.17z"/><path class="st0" d="M28 13.29l-7.16-7.06c-.46-.46-1.21-.45-1.66.01-.46.46-.45 1.21.01 1.66l5.11 5.05H10.59c-.65 0-1.18.53-1.18 1.18s.53 1.18 1.18 1.18H24.3l-5.11 5.05c-.46.46-.47 1.2-.01 1.66.23.23.53.35.84.35.3 0 .6-.11.83-.34L28 14.96c.22-.22.35-.52.35-.84s-.13-.61-.35-.83z"/></svg>